<svg id="Layer_1" data-name="Layer 1" xmlns="http://www.w3.org/2000/svg" viewBox="0 0 581.93 225.26"><defs><style>.cls-1{fill:#243c4c;}.cls-2{fill:#7caf41;}</style></defs><path class="cls-1" d="M77,225.26h6.76v-93H94l0,32H160.7v-6.76l-59.95,0,0-25.23H160.7v-6.76H100.77V115.27H160.7v-6.76H77Zm17-110v10.25H83.73V115.27Z" transform="translate(0 0)"/><polygon class="cls-1" points="100.76 225.26 100.76 181.27 160.7 181.27 160.7 174.51 94.01 174.51 94.01 225.26 100.76 225.26"/><path class="cls-2" d="M94,.06V54.65H83.74V0H77V54.65H23.57V0H16.81V61.4H77V71.63H17v53.75h6.76v-47H77v30.15h6.76V78.38H94v30.13h6.75V.06Zm0,71.57H83.72l0-10.22H94ZM0,0H6.76V125.38H0Z" transform="translate(0 0)"/><polygon class="cls-1" points="198 24.23 200.56 34.1 203.2 34.1 207.84 17.54 204.65 17.54 201.88 28.16 199.17 17.54 196.85 17.54 194.11 28.23 191.4 17.54 188.16 17.54 192.8 34.1 195.44 34.1 198 24.23"/><rect class="cls-1" x="215.07" y="17.54" width="3.11" height="16.56"/><polygon class="cls-1" points="237.45 31.18 231.98 31.18 231.98 17.54 228.87 17.54 228.87 34.1 237.45 34.1 237.45 31.18"/><polygon class="cls-1" points="254.15 31.18 248.68 31.18 248.68 17.54 245.56 17.54 245.56 34.1 254.15 34.1 254.15 31.18"/><rect class="cls-1" x="262.17" y="17.54" width="3.11" height="16.56"/><path class="cls-1" d="M277.84,29.46h5.1l1.75,4.64H288l-6.19-16.3-.1-.26h-2.63L272.8,34.1h3.3Zm1.1-2.92,1.47-4.4,1.46,4.4Z" transform="translate(0 0)"/><polygon class="cls-1" points="298.94 22.39 303.62 34.1 305.56 34.1 310.24 22.35 310.24 34.1 313.35 34.1 313.35 17.54 309.05 17.54 304.58 28.9 300.13 17.54 295.83 17.54 295.83 34.1 298.94 34.1 298.94 22.39"/><polygon class="cls-1" points="358.94 27.29 364.6 27.29 364.6 24.37 358.94 24.37 358.94 20.46 364.6 20.46 364.6 17.54 355.82 17.54 355.82 34.1 358.94 34.1 358.94 27.29"/><polygon class="cls-1" points="382.21 31.18 376.74 31.18 376.74 17.54 373.62 17.54 373.62 34.1 382.21 34.1 382.21 31.18"/><path class="cls-1" d="M398,34.4a8.58,8.58,0,1,0-8.6-8.58A8.58,8.58,0,0,0,398,34.4Zm0-14.24a5.58,5.58,0,0,1,5.49,5.72A5.49,5.49,0,1,1,398,20.16Z" transform="translate(0 0)"/><path class="cls-1" d="M417.53,27.61l4.62,6.49h3.9l-4.46-6A4.88,4.88,0,0,0,425.74,23a5.58,5.58,0,0,0-1.57-4,6,6,0,0,0-4.47-1.43h-5.28V34.1h3.11Zm0-7.15h2c2.27,0,3.08,1.3,3.08,2.53,0,1.77-1.32,2.68-3.93,2.68h-1.17Z" transform="translate(0 0)"/><path class="cls-1" d="M438.91,29.46H444l1.74,4.64h3.32l-6.19-16.3-.1-.26h-2.63L433.86,34.1h3.3ZM440,26.54l1.48-4.4,1.45,4.4Z" transform="translate(0 0)"/><polygon class="cls-1" points="199.88 54.37 193.58 54.37 193.58 109.01 199.88 109.01 199.88 84.31 227.44 84.31 227.44 109.01 233.74 109.01 233.74 54.37 227.44 54.37 227.44 78.53 199.88 78.53 199.88 54.37"/><path class="cls-1" d="M261.34,110c9.13,0,17.29-4.83,20.32-13.5l.19-.54h-6.34l-.1.26c-1.54,4.19-6.17,9.14-14.14,9.3-7.65,0-14.68-6.43-15.28-13.86h36.85l0-.38a21.76,21.76,0,0,0-3.16-13.05,21.43,21.43,0,0,0-18.44-10.57,21.9,21.9,0,0,0-21.44,21.74C239.82,101.29,249.48,110,261.34,110ZM246,86.16a15.54,15.54,0,0,1,30.67,0Z" transform="translate(0 0)"/><polygon class="cls-1" points="327.42 109.01 343.22 68.67 337.01 68.67 324.35 101.99 315.21 73.56 310.1 73.56 301.04 101.98 288.62 68.94 288.52 68.67 282.24 68.67 297.87 108.75 297.96 109.01 304.4 109.01 312.62 83.75 320.99 109.01 327.42 109.01"/><rect class="cls-1" x="347.86" y="54.37" width="6" height="54.64"/><path class="cls-1" d="M380.63,67.64a21.9,21.9,0,0,0-21.44,21.74c0,11.91,9.66,20.6,21.53,20.6,9.12,0,17.29-4.83,20.31-13.5l.19-.54h-6.34l-.1.26c-1.54,4.19-6.17,9.14-14.14,9.3-7.65,0-14.67-6.43-15.27-13.86h36.85l0-.38a21.76,21.76,0,0,0-3.17-13.05A21.43,21.43,0,0,0,380.63,67.64Zm15.45,18.52H365.42a15.53,15.53,0,0,1,30.66,0Z" transform="translate(0 0)"/><polygon class="cls-1" points="411.14 109.01 417.14 109.01 417.14 74.15 433.29 74.15 433.29 109.01 439.29 109.01 439.29 74.15 449 74.15 449 68.67 439.29 68.67 439.29 54.37 433.29 54.37 433.29 68.67 417.14 68.67 417.14 54.37 411.14 54.37 411.14 68.67 402.62 68.67 402.62 74.15 411.14 74.15 411.14 109.01"/><polygon class="cls-1" points="193.14 180.88 199.43 180.88 199.43 155.83 220.84 155.83 220.84 150.06 199.43 150.06 199.43 131.01 221.66 131.01 221.66 125.24 193.14 125.24 193.14 180.88"/><path class="cls-1" d="M246.89,138.5a21.67,21.67,0,1,0,21.67,21.67A21.78,21.78,0,0,0,246.89,138.5Zm.08,37.86a15.81,15.81,0,0,1-15.6-16A16,16,0,0,1,247,144c6.29,0,15.59,5.07,15.59,16C262.56,170.22,254.63,176.36,247,176.36Z" transform="translate(0 0)"/><path class="cls-1" d="M303.69,161.35c0,7.17-1.94,9.7-4.11,11.87a11.13,11.13,0,0,1-8.3,3.14c-3.87,0-6.93-1.25-9.09-3.7-1.89-2.36-2.81-5.77-2.81-10.42V139.53h-6v22.79c0,5.84,1.22,10.32,3.64,13.29,1.86,2.33,6.19,6.23,14.25,6.23,7.54,0,11.21-4.05,12.7-6.38v5.42h5.71V139.53h-6Z" transform="translate(0 0)"/><path class="cls-1" d="M335.14,138.5A15.24,15.24,0,0,0,323,144.06v-4.53h-6v41.35h6V158.16c-.06-4.63,1.24-8.47,3.66-10.81a12.49,12.49,0,0,1,17.07,0c2.4,2.32,3.73,6.16,3.73,10.82v22.71h6V158.17c0-6.25-1.79-11.3-5.16-14.59C344.73,140.07,340.69,138.5,335.14,138.5Z" transform="translate(0 0)"/><path class="cls-1" d="M395.87,145.86c-5.24-6.82-13.15-7.36-15.53-7.36a21.67,21.67,0,0,0-22.19,21.59c0,12.2,9.75,21.75,22.19,21.75,4.89,0,11.41-2,15.53-7.42v6.46h6V125.24h-6Zm-15.53,30.5a15.76,15.76,0,0,1-16.19-16c0-10.73,8.15-16.34,16.19-16.34a16.06,16.06,0,0,1,15.82,16.26A15.8,15.8,0,0,1,380.34,176.36Z" transform="translate(0 0)"/><path class="cls-1" d="M443.88,146c-4.84-6.7-12.4-7.45-15.52-7.45a21.67,21.67,0,0,0-22.19,21.59c0,12.2,9.75,21.75,22.19,21.75,3.07,0,10.54-.74,15.52-7.41v6.45h6V139.53h-6Zm-15.52,30.41a15.76,15.76,0,0,1-16.19-16c0-10.73,8.15-16.34,16.19-16.34a16.06,16.06,0,0,1,15.82,16.26A15.8,15.8,0,0,1,428.36,176.36Z" transform="translate(0 0)"/><polygon class="cls-1" points="469.23 125.24 463.23 125.24 463.23 139.53 454.71 139.53 454.71 145.02 463.23 145.02 463.23 180.88 469.23 180.88 469.23 145.02 478.93 145.02 478.93 139.53 469.23 139.53 469.23 125.24"/><rect class="cls-1" x="484.86" y="125.24" width="6" height="10.15"/><rect class="cls-1" x="484.86" y="139.53" width="6" height="41.34"/><path class="cls-1" d="M518.76,138.5a21.67,21.67,0,1,0,21.67,21.67A21.78,21.78,0,0,0,518.76,138.5Zm.08,37.86a15.81,15.81,0,0,1-15.6-16A16,16,0,0,1,518.84,144c6.29,0,15.59,5.07,15.59,16C534.43,170.22,526.5,176.36,518.84,176.36Z" transform="translate(0 0)"/><path class="cls-1" d="M576.77,143.58c-3.51-3.51-7.56-5.08-13.1-5.08a15.21,15.21,0,0,0-12.19,5.56v-4.53h-6v41.35h6V158.16c-.07-4.63,1.23-8.47,3.65-10.81a12.49,12.49,0,0,1,17.07,0c2.4,2.32,3.73,6.16,3.73,10.82v22.71h6V158.17C581.93,151.92,580.14,146.87,576.77,143.58Z" transform="translate(0 0)"/><polygon class="cls-2" points="332.76 31.61 335.79 31.61 335.79 27.33 340.05 27.33 340.05 24.3 335.79 24.3 335.79 20.03 332.76 20.03 332.76 24.3 328.5 24.3 328.5 27.33 332.76 27.33 332.76 31.61"/></svg>
